<?xml version="1.0" encoding="UTF-8" standalone="no"?>
<!-- Created with Inkscape (http://www.inkscape.org/) -->

<svg
   xmlns:dc="http://purl.org/dc/elements/1.1/"
   xmlns:cc="http://creativecommons.org/ns#"
   xmlns:rdf="http://www.w3.org/1999/02/22-rdf-syntax-ns#"
   xmlns:svg="http://www.w3.org/2000/svg"
   xmlns="http://www.w3.org/2000/svg"
   xmlns:sodipodi="http://sodipodi.sourceforge.net/DTD/sodipodi-0.dtd"
   xmlns:inkscape="http://www.inkscape.org/namespaces/inkscape"
   width="210mm"
   height="297mm"
   viewBox="0 0 210 297"
   version="1.1"
   id="svg158"
   inkscape:version="0.92.3 (2405546, 2018-03-11)"
   sodipodi:docname="drawing.svg">
  <defs
     id="defs152" />
  <sodipodi:namedview
     id="base"
     pagecolor="#ffffff"
     bordercolor="#666666"
     borderopacity="1.0"
     inkscape:pageopacity="0.0"
     inkscape:pageshadow="2"
     inkscape:zoom="0.35"
     inkscape:cx="400"
     inkscape:cy="560"
     inkscape:document-units="mm"
     inkscape:current-layer="layer1"
     showgrid="false"
     inkscape:window-width="1366"
     inkscape:window-height="705"
     inkscape:window-x="-8"
     inkscape:window-y="-8"
     inkscape:window-maximized="1" />
  <metadata
     id="metadata155">
    <rdf:RDF>
      <cc:Work
         rdf:about="">
        <dc:format>image/svg+xml</dc:format>
        <dc:type
           rdf:resource="http://purl.org/dc/dcmitype/StillImage" />
        <dc:title></dc:title>
      </cc:Work>
    </rdf:RDF>
  </metadata>
  <g
     inkscape:label="Layer 1"
     inkscape:groupmode="layer"
     id="layer1">
    <path
       style="fill:#800000;stroke-width:0.26458332"
       id="path160"
       d="m 69.252663,45.622728 c -0.06371,2.4585 -0.0685,4.918752 -0.06207,7.378036 -0.09698,2.236726 0.214786,4.449011 0.450294,6.666261 0.224713,1.994186 0.282795,4.000982 0.328176,6.005621 0.04,1.857709 0.01423,3.715864 0.01132,5.573779 0.0089,1.844215 0.0052,3.688363 0.0029,5.532564 -0.01995,2.460546 -0.03411,4.921113 -0.04223,7.381724 -0.01331,3.50501 -0.04586,7.009921 -0.0482,10.515013 -0.03986,3.52919 0.01095,7.058294 0.05894,10.587084 0,0 -9.879814,5.03402 -9.879814,5.03402 v 0 c 0.04761,-3.54881 0.0987,-7.09794 0.05892,-10.647141 -0.0024,-3.488714 -0.03489,-6.977245 -0.04825,-10.465874 -0.0081,-2.446544 -0.02236,-4.89304 -0.04134,-7.339523 -0.0011,-1.846649 -0.0026,-3.693232 0.01021,-5.539875 1.27e-4,-1.849927 -0.01445,-3.699801 -0.01685,-5.549725 -0.01908,-1.980896 -0.06503,-3.962887 -0.252968,-5.936248 -0.224729,-2.260742 -0.619265,-4.507891 -0.460414,-6.789025 0.0063,-2.438191 0.0024,-4.877403 -0.06207,-7.314787 0,0 9.993421,-5.091904 9.993421,-5.091904 z"
       inkscape:connector-curvature="0" />
    <path
       style="fill:#800000;stroke-width:0.26458332"
       id="path162"
       d="m 71.645972,102.29368 c 2.169089,-0.11075 4.278135,-0.52194 6.405833,-0.92085 1.748139,-0.3388 3.527996,-0.37771 5.30185,-0.41531 1.774256,0.0356 3.571587,-0.16036 5.328211,0.12389 1.529604,0.29294 3.051376,0.46009 4.557527,0.85768 1.46005,0.22243 2.870621,0.64004 4.320537,0.90922 1.558116,0.62687 3.18547,0.88304 4.84749,1.01986 1.75529,-0.0333 3.44461,0.21368 5.16092,0.53144 1.07894,0.0973 2.0549,0.60025 3.05906,0.9672 0,0 -9.25434,6.24678 -9.25434,6.24678 v 0 c -0.97514,-0.34592 -1.950863,-0.67819 -2.985092,-0.79833 -1.678774,-0.31295 -3.365103,-0.37556 -5.067525,-0.48146 -1.687888,-0.1949 -3.309432,-0.59307 -4.930349,-1.09701 -1.45678,-0.31355 -2.916494,-0.60708 -4.368559,-0.94077 -1.468557,-0.34862 -2.976338,-0.47717 -4.460769,-0.74538 -1.737728,-0.10693 -3.481602,-0.021 -5.221248,-0.004 -1.739236,0.0641 -3.475397,0.19616 -5.184762,0.54211 -2.152861,0.39223 -4.320736,0.6245 -6.487162,0.92478 0,0 8.978378,-6.71986 8.978378,-6.71986 z"
       inkscape:connector-curvature="0" />
    <path
       style="fill:#800000;stroke-width:0.26458332"
       id="path164"
       d="m 81.449478,43.858103 c 0.758613,2.307217 1.386946,4.672652 2.340859,6.908532 1.107447,2.065814 1.690155,4.329851 2.348267,6.563138 0.698738,2.430251 1.232423,4.908775 2.052896,7.302095 0.707565,1.902455 1.759919,3.652943 2.645757,5.479378 1.032465,2.116632 2.010968,4.256246 3.097757,6.346002 1.399421,2.127427 2.152677,4.563017 3.205782,6.86136 0.990489,1.740215 1.331389,3.745064 2.121109,5.554769 0.336971,0.710668 0.683874,1.394594 1.114665,2.051978 0,0 -9.647665,5.643856 -9.647665,5.643856 v 0 c -0.468318,-0.712766 -0.853811,-1.438846 -1.200394,-2.219698 -0.792498,-1.80808 -1.102468,-3.816802 -2.065784,-5.57173 -1.017463,-2.294652 -1.755881,-4.716638 -3.177715,-6.811198 -1.072086,-2.106073 -2.082162,-4.23875 -3.111632,-6.364581 -0.917877,-1.864768 -2.062036,-3.626443 -2.714384,-5.605846 -0.801233,-2.416612 -1.375844,-4.901547 -2.04251,-7.357393 -0.641053,-2.187144 -1.304885,-4.380627 -2.310524,-6.433162 -0.970121,-2.255001 -1.506717,-4.677171 -2.491361,-6.931006 0,0 9.834877,-5.416494 9.834877,-5.416494 z"
       inkscape:connector-curvature="0" />
    <path
       style="fill:#800000;stroke-width:0.26458332"
       id="path166"
       d="m 107.04243,54.788582 c -0.31819,2.715684 -0.4177,5.452539 -0.71822,8.168741 -0.263,2.170369 -0.77645,4.296505 -1.14972,6.448049 -0.31466,1.818301 -0.3685,3.662958 -0.41526,5.502952 -0.0259,1.995065 -0.25562,3.995775 -0.58517,5.96324 -0.34658,1.522929 -1.0143,2.92603 -1.33948,4.455898 -0.28098,1.599973 -0.3138,3.22765 -0.33718,4.847559 -0.007,1.061376 -0.002,0.516011 -0.0139,1.636096 0,0 -9.954304,5.070924 -9.954304,5.070924 v 0 c -0.0098,-1.119753 -0.0087,-0.572725 -0.0044,-1.641086 0.01691,-1.676199 0.04366,-3.356932 0.264602,-5.021246 0.243041,-1.576954 0.735917,-3.016298 1.319887,-4.491935 0.51888,-1.856454 0.609579,-3.858966 0.708263,-5.774356 0.01394,-1.889599 0.04729,-3.787603 0.344419,-5.657845 0.361553,-2.151912 0.885901,-4.270645 1.202237,-6.430377 0.422826,-2.64037 0.475306,-5.330325 0.700532,-7.992714 0,0 9.977714,-5.0839 9.977714,-5.0839 z"
       inkscape:connector-curvature="0" />
    <path
       style="fill:#800000;stroke-width:0.26458332"
       id="path168"
       d="m 107.05819,54.780578 c -0.0806,2.568811 -0.0755,5.139455 -0.0593,7.709181 -0.0663,2.031484 -0.007,3.990215 0.5196,5.953307 0.53732,1.550805 1.43516,2.920333 2.31279,4.293042 0.91357,1.265595 1.94305,2.467618 2.78182,3.784817 0.71219,1.495102 1.47526,2.947678 2.348,4.354295 0.88287,0.967682 1.47188,2.151759 2.31382,3.145901 0,0 -9.60657,5.75881 -9.60657,5.75881 v 0 c -0.84655,-1.056862 -1.53964,-2.226371 -2.39567,-3.278746 -0.84837,-1.409647 -1.57305,-2.873848 -2.32571,-4.334478 -0.8598,-1.306414 -1.85104,-2.530274 -2.76518,-3.799168 -0.943111,-1.46568 -1.893997,-2.933065 -2.462237,-4.594473 -0.620189,-2.187615 -0.742839,-3.974846 -0.595567,-6.25179 0.01603,-2.549585 0.02236,-5.100156 -0.05925,-7.648794 0,0 9.993414,-5.091904 9.993414,-5.091904 z"
       inkscape:connector-curvature="0" />
    <path
       style="fill:#800000;stroke-width:0.26458332"
       id="path170"
       d="m 135.77647,36.551301 c -0.0946,2.702234 -0.35246,5.398944 -0.77678,8.068926 -0.47267,2.865268 -1.66403,5.500076 -2.83118,8.130847 -0.73869,1.730433 -1.74835,3.307262 -2.77744,4.872728 -0.73519,1.446268 -1.50582,2.873721 -2.27236,4.304739 -0.82746,1.824511 -1.72378,3.609636 -2.6745,5.37269 -0.83012,1.778706 -1.60935,3.581032 -2.46053,5.350798 -0.92534,1.667592 -1.65511,3.432543 -2.48992,5.145238 -0.8285,1.390333 -1.30229,2.938939 -2.01845,4.380754 -0.64049,1.532052 -1.41715,3.002301 -2.08301,4.522124 -0.0876,0.258164 -0.17522,0.516331 -0.26283,0.774499 0,0 -10.08878,4.798829 -10.08878,4.798829 v 0 c 0.0664,-0.292925 0.13281,-0.585851 0.19921,-0.878773 0.58176,-1.586876 1.49902,-3.015367 2.04874,-4.61368 0.24132,-0.468297 0.55377,-0.901134 0.75849,-1.386547 0.41736,-0.989602 0.57596,-2.105241 1.27124,-2.978684 0.83716,-1.734915 1.64272,-3.478204 2.50543,-5.19839 0.99778,-1.690143 1.64209,-3.573502 2.46504,-5.351103 0.91828,-1.758638 1.90365,-3.479501 2.66538,-5.315868 0.64192,-1.516716 1.65188,-2.8404 2.19897,-4.404585 0.94274,-1.623756 2.1743,-3.065203 2.95511,-4.78885 1.14526,-2.563275 2.4228,-5.079767 2.9254,-7.871512 0.48118,-2.582191 0.83574,-5.2103 0.74935,-7.842279 0,0 9.99342,-5.091901 9.99342,-5.091901 z"
       inkscape:connector-curvature="0" />
    <path
       style="fill:#800000;stroke-width:0.26458332"
       id="path172"
       d="m 33.979376,119.08391 c 2.605484,0.10623 5.215512,-0.0818 7.813363,0.15555 3.028209,0.79257 6.087319,1.43716 9.189643,1.8539 0.409382,0.04 0.822801,0.0501 1.228143,0.12008 0.930182,0.1605 1.833507,0.45093 2.756524,0.64852 1.553054,0.33246 3.095646,0.5463 4.638305,0.93403 3.193679,0.7777 6.453502,1.22853 9.726877,1.48611 1.117753,0.1738 2.27825,-0.0165 3.394961,0.12191 1.144566,0.14183 2.316411,0.55214 3.444642,0.79729 1.75464,0.44613 3.581199,0.37347 5.360757,0.59879 0.207849,0.0263 3.003484,0.56713 3.202559,0.60539 3.111484,0.37445 6.10039,1.30792 9.159288,1.95259 2.136875,0.27017 4.214011,0.75443 6.276862,1.35842 1.92914,0.55639 3.84223,1.05375 5.84128,1.28543 3.34252,0.6904 6.76544,0.78888 10.16507,0.90387 3.59213,0.0858 7.18586,0.0919 10.77889,0.0928 3.23605,-0.0722 6.47688,0.1228 9.70586,-0.12537 2.55241,-0.11113 5.00206,-0.77389 7.44909,-1.44783 2.6635,-0.83753 5.10171,-2.11417 7.51527,-3.48968 4.17999,-2.07687 15.756,-8.7078 -1.7619,1.32504 4.1008,-2.48599 8.26143,-4.82879 12.47798,-7.14278 0.34315,-0.18831 0.74008,-0.25694 1.10061,-0.40937 0.61497,-0.26002 1.20872,-0.56827 1.82266,-0.83071 1.9983,-1.17555 4.15623,-1.84468 6.40108,-2.36944 2.19073,-0.70764 4.3914,-1.43117 6.50753,-2.33877 1.63837,-0.71812 3.38251,-1.05748 5.06545,-1.63215 -0.37577,0.55191 2.51957,-1.17499 1.71046,-0.70807 -3.04665,1.75812 -12.15133,7.0888 -9.1694,5.22302 9.00102,-5.63191 6.45597,-4.93414 10.91013,-6.02623 0,0 -8.82305,6.8856 -8.82305,6.8856 v 0 c -0.22413,0.10842 -0.88696,0.45153 -0.67239,0.32524 3.00731,-1.76999 12.12893,-6.90465 9.0526,-5.25754 -4.46439,2.39031 -7.44196,5.13592 -11.85836,6.42951 -1.65524,0.52785 -3.37089,0.87163 -4.95035,1.62854 -2.1641,0.80142 -4.31277,1.65686 -6.56183,2.19806 -2.22535,0.61585 -4.29864,1.5316 -6.36008,2.56424 -1.16695,0.51759 -0.56572,0.25522 -1.80423,0.78584 -0.34961,0.15382 -1.37182,0.66783 -1.04472,0.47063 15.16494,-9.14215 9.86738,-5.8016 6.5819,-3.78555 -5.70602,3.27633 -11.37892,6.56295 -17.21069,9.60102 -2.45418,1.35717 -4.98818,2.53113 -7.6984,3.29143 -2.47735,0.67835 -4.98116,1.18633 -7.56116,1.24008 -3.24235,0.11892 -6.48914,0.0649 -9.73329,0.0659 -3.57569,-0.011 -7.15109,-0.0345 -10.72452,-0.17899 -3.47857,-0.13489 -6.96871,-0.23925 -10.402307,-0.8653 -2.026881,-0.30533 -3.98181,-0.86408 -5.954276,-1.4115 -2.029196,-0.58873 -4.104516,-0.92734 -6.173126,-1.34529 -3.0172,-0.71986 -6.008357,-1.54626 -9.091623,-1.94813 -2.874346,-0.50917 -5.787874,-0.60866 -8.651203,-1.18549 -2.241418,-0.48808 -4.459573,-0.76393 -6.757008,-0.81628 -3.275611,-0.37067 -6.526266,-0.93028 -9.742993,-1.65294 -2.860897,-0.60402 -5.742787,-1.15513 -8.633164,-1.59109 -3.062094,-0.51423 -6.070687,-1.28372 -9.133496,-1.78286 -2.618663,-0.11741 -5.243475,-0.0609 -7.863791,-0.0253 0,0 9.059573,-6.58217 9.059573,-6.58217 z"
       inkscape:connector-curvature="0" />
    <path
       style="fill:#800000;stroke-width:0.26458332"
       id="path174"
       d="m 116.71136,119.10463 c 3.27357,0.008 6.55888,0.15767 9.82572,-0.087 2.80295,-0.0447 5.42189,-0.90039 8.07126,-1.70571 2.58318,-0.46211 4.91301,-1.6835 7.37482,-2.51758 0.32482,-0.19285 1.30309,-0.76487 0.97447,-0.57856 -2.80306,1.58926 -5.58797,3.21054 -8.39796,4.78748 -0.38153,0.21411 0.73357,-0.47757 1.11132,-0.69828 3.50929,-2.05045 7.05163,-4.04433 10.54914,-6.11482 2.80953,-1.66322 -5.6393,3.29262 -8.48513,4.89295 -0.37792,0.21251 0.71872,-0.48513 1.07809,-0.72769 1.96517,-1.48575 3.96085,-2.93597 6.04056,-4.25768 1.68339,-1.12975 3.25337,-2.41918 4.86488,-3.64811 3.74052,-2.47805 7.81322,-4.56923 11.65244,-6.77802 2.97463,-1.711376 -11.91489,6.81689 -8.92967,5.12407 11.08707,-6.2871 6.62457,-4.50957 11.55422,-6.39726 2.17211,-0.949168 4.23082,-2.160452 6.43318,-3.034336 1.42126,-0.73986 3.03191,-0.883177 4.54593,-1.30942 0.74675,-0.210233 1.45959,-0.526286 2.1911,-0.784604 0.38119,-0.106468 0.76239,-0.212939 1.14359,-0.319407 0,0 -8.79416,6.787717 -8.79416,6.787717 v 0 c -0.37327,0.1188 -0.74653,0.23761 -1.1198,0.35642 -2.23008,0.73848 -4.56545,1.14847 -6.69679,2.17299 -2.13546,1.001 -4.24736,2.0524 -6.40239,3.01173 -0.38706,0.18748 -1.53094,0.78203 -1.16117,0.56243 2.8981,-1.72109 11.69281,-6.71171 8.7496,-5.06897 -3.43851,1.9192 -6.76369,4.04044 -10.23566,5.89842 -3.01485,1.61336 5.89741,-3.4628 8.86351,-5.16413 0.47573,-0.27287 -1.88892,1.29685 -1.41342,0.8422 -1.70904,1.14106 -3.2511,2.51655 -4.90453,3.73464 -2.09219,1.29825 -4.11875,2.68491 -6.08064,4.17572 -4.08989,3.38568 -0.97023,0.89743 -11.51917,6.91435 -2.81501,1.60563 5.59653,-3.26939 8.40848,-4.88036 0.37934,-0.21733 -0.73271,0.47775 -1.10981,0.69895 -10.61055,6.22402 -6.89166,4.55033 -11.66328,6.63624 -2.42164,0.9281 -4.83506,1.86792 -7.3735,2.44144 -2.687,0.80274 -5.37819,1.46591 -8.20573,1.48112 -3.31249,0.13111 -6.62813,7.9e-4 -9.94202,0.0938 0,0 9.00252,-6.54072 9.00252,-6.54072 z"
       inkscape:connector-curvature="0" />
    <path
       style="fill:#800000;stroke-width:0.26458332"
       id="path176"
       d="m 135.70359,98.944347 c -17.30387,10.579863 -6.9841,4.033663 -3.28676,1.016883 1.70768,-1.598596 3.4532,-3.163448 5.08993,-4.835712 1.4937,-1.816233 3.15111,-3.476644 4.78488,-5.164347 1.57712,-1.632995 3.47366,-2.871666 5.43178,-3.994518 10.97954,-6.296017 7.2965,-4.435594 12.60337,-7.060334 0.49497,-0.25875 0.99014,-0.517126 1.48492,-0.776253 0.4778,-0.250238 1.89903,-1.02303 1.4328,-0.751838 -2.72936,1.587601 -10.94928,6.295173 -8.22333,4.701707 3.53142,-2.064308 7.10168,-4.061537 10.63984,-6.114285 2.82326,-1.637991 -5.65859,3.255166 -8.49516,4.869997 -0.29357,0.167122 0.57719,-0.351123 0.86579,-0.526685 4.3808,-2.73191 8.65692,-5.742408 13.62533,-7.175301 0,0 -8.76554,6.797892 -8.76554,6.797892 v 0 c -0.39535,0.142465 -0.7953,0.272769 -1.18606,0.427397 -0.36433,0.144174 -1.41292,0.67197 -1.07804,0.468551 14.42944,-8.765056 10.87371,-6.4974 7.79894,-4.522962 -0.29951,0.173447 -0.59928,0.34645 -0.89853,0.520337 -3.49675,2.031844 -6.99546,4.060343 -10.48949,6.096857 -2.76452,1.611313 11.08319,-6.401755 8.30095,-4.821253 -3.57919,2.033212 -7.11729,4.138091 -10.69184,6.179436 -0.28079,0.160354 -2.63566,1.358665 -2.90314,1.495266 -4.2985,2.200733 -1.86714,0.992789 6.22174,-3.749378 0.53216,-0.311981 -1.07077,0.612852 -1.60307,0.924584 -1.37617,0.805926 -2.71228,1.659315 -3.8771,2.761599 -1.59193,1.685115 -3.26954,3.282336 -4.70465,5.108284 -1.56362,1.799264 -3.46028,3.263881 -5.09398,4.997635 -4.8256,4.076554 -9.98188,7.313044 -15.74614,10.135654 0,0 8.76256,-7.009213 8.76256,-7.009213 z"
       inkscape:connector-curvature="0" />
  </g>
</svg>
